<svg xmlns="http://www.w3.org/2000/svg" width="34" height="34" viewBox="0 0 34 34">
  <g id="calendar-60" transform="translate(-1 -1)">
    <g id="Group_10" data-name="Group 10" transform="translate(1 1)">
      <path id="Path_4" data-name="Path 4" d="M13.217,1H11.739A.738.738,0,0,0,11,1.739V6.913a.738.738,0,0,0,.739.739h1.478a.738.738,0,0,0,.739-.739V1.739A.738.738,0,0,0,13.217,1Z" transform="translate(-3.609 -1)" fill="#333"/>
      <path id="Path_5" data-name="Path 5" d="M35.217,7.652H33.739A.739.739,0,0,1,33,6.913V1.739A.739.739,0,0,1,33.739,1h1.478a.739.739,0,0,1,.739.739V6.913A.739.739,0,0,1,35.217,7.652Z" transform="translate(-9.348 -1)" fill="#333"/>
      <path id="Path_6" data-name="Path 6" d="M33.522,5H29.087V9.435a.739.739,0,0,1-.739.739H23.913a.739.739,0,0,1-.739-.739V5H12.826V9.435a.739.739,0,0,1-.739.739H7.652a.739.739,0,0,1-.739-.739V5H2.478A1.478,1.478,0,0,0,1,6.478V34.565a1.478,1.478,0,0,0,1.478,1.478H33.522A1.478,1.478,0,0,0,35,34.565V6.478A1.478,1.478,0,0,0,33.522,5Zm-.739,29.565H3.217a.739.739,0,0,1-.739-.739V13.87a.739.739,0,0,1,.739-.739H32.783a.739.739,0,0,1,.739.739V33.826A.739.739,0,0,1,32.783,34.565Z" transform="translate(-1 -2.043)" fill="#333"/>
    </g>
  </g>
</svg>
